<svg xmlns="http://www.w3.org/2000/svg" viewBox="0 0 103 64">
  <path fill="#FF671B" d="M65.333 6.756H37.522v50.311h27.81V6.756Z"/>
  <path fill="#EB001B" d="M39.289 32c0-10.222 4.767-19.289 12.096-25.156C45.998 2.578 39.2 0 31.785 0 14.214 0 0 14.311 0 32s14.215 32 31.784 32c7.416 0 14.215-2.578 19.6-6.844C44.056 51.289 39.29 42.133 39.29 32Z"/>
  <path fill="#F79E1B" d="M102.857 32c0 17.689-14.215 32-31.784 32-7.416 0-14.215-2.578-19.6-6.844C58.889 51.289 63.568 42.222 63.568 32S58.801 12.711 51.473 6.844C56.858 2.578 63.657 0 71.073 0c17.57 0 31.784 14.311 31.784 32Z"/>
</svg>